<?xml version="1.0" encoding="UTF-8"?>
<!--Generator: Apple Native CoreSVG 326-->
<!DOCTYPE svg
PUBLIC "-//W3C//DTD SVG 1.1//EN"
       "http://www.w3.org/Graphics/SVG/1.1/DTD/svg11.dtd">
<svg version="1.1" xmlns="http://www.w3.org/2000/svg" xmlns:xlink="http://www.w3.org/1999/xlink" viewBox="0 0 16.2903 18.9507">
 <g>
  <rect height="18.9507" opacity="0" width="16.2903" x="0" y="0"/>
  <path d="M8.66809 12.4903L8.66809 18.9424L7.27356 18.9424L7.27356 12.2354L6.27747 12.2354C5.547 12.2354 5.25647 11.9448 5.25647 11.2144L5.25647 9.0831ZM10.6769 4.83105L10.6769 9.94227L5.27547 4.54792C5.34852 4.02956 5.65141 3.81006 6.27747 3.81006L9.65588 3.81006C10.3864 3.81006 10.6769 4.10889 10.6769 4.83105Z" fill="white" fill-opacity="0.85"/>
  <path d="M9.58948 1.021L9.58948 2.83887L6.34387 2.83887L6.34387 1.021C6.34387 0.290527 6.6427 0 7.37317 0L8.56018 0C9.29065 0 9.58948 0.290527 9.58948 1.021Z" fill="white" fill-opacity="0.85"/>
  <path d="M13.8561 16.3027C14.1051 16.5518 14.5201 16.5518 14.7609 16.3027C15.0016 16.0537 15.0099 15.647 14.7609 15.3979L2.06897 2.71436C1.81995 2.46533 1.40491 2.45703 1.15588 2.71436C0.915161 2.95508 0.915161 3.37012 1.15588 3.61914Z" fill="white" fill-opacity="0.85"/>
 </g>
</svg>
