<?xml version="1.0" encoding="UTF-8"?>
<!--Generator: Apple Native CoreSVG 326-->
<!DOCTYPE svg
PUBLIC "-//W3C//DTD SVG 1.1//EN"
       "http://www.w3.org/Graphics/SVG/1.1/DTD/svg11.dtd">
<svg version="1.1" xmlns="http://www.w3.org/2000/svg" xmlns:xlink="http://www.w3.org/1999/xlink" viewBox="0 0 16.372 16.151">
 <g>
  <rect height="16.151" opacity="0" width="16.372" x="0" y="0"/>
  <path d="M0 6.4439C0 9.99331 2.89448 12.8878 6.4439 12.8878C7.9011 12.8878 9.23379 12.3998 10.3109 11.5809L14.6316 15.9151C14.7814 16.0648 14.9866 16.1484 15.206 16.1484C15.6829 16.1484 15.9984 15.7894 15.9984 15.3388C15.9984 15.1246 15.9168 14.9276 15.7682 14.7816L11.4673 10.4583C12.3557 9.35888 12.8878 7.96236 12.8878 6.4439C12.8878 2.89448 9.99331 0 6.4439 0C2.89448 0 0 2.89448 0 6.4439ZM1.08234 6.4439C1.08234 3.48948 3.48948 1.07977 6.4439 1.07977C9.39831 1.07977 11.8055 3.48948 11.8055 6.4439C11.8055 9.39831 9.39831 11.8055 6.4439 11.8055C3.48948 11.8055 1.08234 9.39831 1.08234 6.4439Z" fill="black" fill-opacity="0.85"/>
 </g>
</svg>
