<svg width="128" height="128" viewBox="0 0 128 128" fill="none" xmlns="http://www.w3.org/2000/svg">
<g clip-path="url(#clip0_92_198)">
<path d="M128 0H0V128H128V0Z" fill="#8697FF"/>
<path d="M100.352 68.6113C103.228 62.1646 89.01 44.1536 75.4265 36.6497C66.8645 30.8366 57.9427 31.6353 56.1357 34.1876C52.1705 39.7891 69.2665 44.5356 80.7002 50.0741C78.2425 51.1453 75.9263 53.0673 74.5643 55.5253C70.3018 50.8561 60.946 46.8353 49.9682 50.0741C42.5702 52.2568 36.4222 57.4023 34.046 65.1743C33.4685 64.9168 32.8292 64.7738 32.1567 64.7738C29.585 64.7738 27.5 66.8658 27.5 69.4463C27.5 72.0268 29.585 74.1188 32.1567 74.1188C32.6335 74.1188 34.124 73.7978 34.124 73.7978L57.9428 73.9711C48.4173 89.1336 40.8892 91.3501 40.8892 93.9768C40.8892 96.6036 48.092 95.8918 50.7968 94.9126C63.7435 90.2253 77.649 75.6171 80.0352 71.4118C90.0557 72.6663 98.477 72.8148 100.352 68.6113Z" fill="url(#paint0_linear_92_198)"/>
<path fill-rule="evenodd" clip-rule="evenodd" d="M80.699 50.0751C80.6997 50.0753 80.7002 50.0756 80.701 50.0758C81.231 49.8663 81.1452 49.0811 80.9997 48.4643C80.6652 47.0466 74.8942 41.3288 69.475 38.7678C62.091 35.2781 56.6535 35.4578 55.8495 37.066C57.3535 40.1593 64.327 43.0636 71.6102 46.0971C74.7175 47.3911 77.8812 48.7086 80.7005 50.0743C80.7 50.0746 80.6995 50.0748 80.699 50.0751Z" fill="url(#paint1_linear_92_198)"/>
<path fill-rule="evenodd" clip-rule="evenodd" d="M71.3282 81.2081C69.8347 80.6353 68.148 80.1098 66.23 79.6333C68.275 75.9618 68.704 70.5266 66.7727 67.0901C64.0625 62.2673 60.66 59.7003 52.7537 59.7003C48.4052 59.7003 36.6972 61.1701 36.4895 70.9763C36.4677 72.0053 36.489 72.9483 36.5632 73.8156L57.9427 73.9711C55.0605 78.5588 52.361 81.9616 49.9977 84.5488C52.8352 85.2783 55.1767 85.8908 57.3265 86.4531C59.3662 86.9868 61.2335 87.4751 63.1875 87.9753C66.1352 85.8206 68.9067 83.4706 71.3282 81.2081Z" fill="url(#paint2_linear_92_198)"/>
<path d="M33.7607 72.8081C34.634 80.2576 38.8535 83.1771 47.4757 84.0411C56.0977 84.9048 61.0437 84.3253 67.6282 84.9263C73.1275 85.4286 78.0378 88.2403 79.8595 87.2686C81.4988 86.3941 80.5815 83.2346 78.388 81.2076C75.5445 78.5801 71.609 76.7533 64.6842 76.1048C66.0642 72.3136 65.6775 66.9978 63.5342 64.1058C60.4352 59.9241 54.7152 58.0336 47.4757 58.8596C39.912 59.7226 32.6645 63.4588 33.7607 72.8081Z" fill="url(#paint3_linear_92_198)"/>
</g>
<defs>
<linearGradient id="paint0_linear_92_198" x1="49.1068" y1="62.9023" x2="99.7582" y2="77.2178" gradientUnits="userSpaceOnUse">
<stop stop-color="white"/>
<stop offset="1" stop-color="white"/>
</linearGradient>
<linearGradient id="paint1_linear_92_198" x1="91.208" y1="61.9368" x2="54.5557" y2="25.3183" gradientUnits="userSpaceOnUse">
<stop stop-color="#8697FF"/>
<stop offset="1" stop-color="#8697FF" stop-opacity="0"/>
</linearGradient>
<linearGradient id="paint2_linear_92_198" x1="72.3445" y1="82.4878" x2="37.1957" y2="62.3476" gradientUnits="userSpaceOnUse">
<stop stop-color="#8697FF"/>
<stop offset="1" stop-color="#8697FF" stop-opacity="0"/>
</linearGradient>
<linearGradient id="paint3_linear_92_198" x1="52.129" y1="62.5233" x2="75.9462" y2="92.6838" gradientUnits="userSpaceOnUse">
<stop stop-color="white"/>
<stop offset="0.983895" stop-color="#D1D8FF"/>
</linearGradient>
<clipPath id="clip0_92_198">
<rect width="128" height="128" rx="24" fill="white"/>
</clipPath>
</defs>
</svg>
