<?xml version="1.0" encoding="UTF-8"?>
<!--Generator: Apple Native CoreSVG 326-->
<!DOCTYPE svg
PUBLIC "-//W3C//DTD SVG 1.1//EN"
       "http://www.w3.org/Graphics/SVG/1.1/DTD/svg11.dtd">
<svg version="1.1" xmlns="http://www.w3.org/2000/svg" xmlns:xlink="http://www.w3.org/1999/xlink" viewBox="0 0 22.6445 19.0005">
 <g>
  <rect height="19.0005" opacity="0" width="22.6445" x="0" y="0"/>
  <path d="M2.60645 8.30078L8.5249 8.30078C10.2598 8.30078 11.1313 7.4375 11.1313 5.72754L11.1313 2.56494C11.1313 0.85498 10.2598 0 8.5249 0L2.60645 0C0.871582 0 0 0.85498 0 2.56494L0 5.72754C0 7.4375 0.871582 8.30078 2.60645 8.30078ZM2.62305 6.96436C1.79297 6.96436 1.33643 6.51611 1.33643 5.65283L1.33643 2.63965C1.33643 1.77637 1.79297 1.33643 2.62305 1.33643L8.5083 1.33643C9.33008 1.33643 9.79492 1.77637 9.79492 2.63965L9.79492 5.65283C9.79492 6.51611 9.33008 6.96436 8.5083 6.96436ZM13.7378 18.9922L19.6646 18.9922C21.3911 18.9922 22.271 18.1289 22.271 16.4189L22.271 13.2646C22.271 11.5547 21.3911 10.6914 19.6646 10.6914L13.7378 10.6914C12.0112 10.6914 11.1313 11.5464 11.1313 13.2646L11.1313 16.4189C11.1313 18.1372 12.0112 18.9922 13.7378 18.9922ZM13.7627 17.6558C12.9326 17.6558 12.4678 17.2158 12.4678 16.3525L12.4678 13.3311C12.4678 12.4761 12.9326 12.0278 13.7627 12.0278L19.6396 12.0278C20.4614 12.0278 20.9346 12.4761 20.9346 13.3311L20.9346 16.3525C20.9346 17.2158 20.4614 17.6558 19.6396 17.6558Z" fill="black" fill-opacity="0.85"/>
  <path d="M17.7554 9.13916C18.0127 9.49609 18.3032 9.48779 18.5605 9.13916L20.1045 7.03906C20.4448 6.58252 20.312 6.11768 19.6978 6.11768L18.6021 6.11768L18.6021 5.94336C18.6021 3.56104 17 1.97559 14.626 1.97559L13.3809 1.97559C13.0986 1.97559 12.8662 2.21631 12.8662 2.49854C12.8662 2.78076 13.0986 3.01318 13.3809 3.01318L14.6177 3.01318C16.3857 3.01318 17.6392 4.15039 17.6392 5.95166L17.6392 6.11768L16.6265 6.11768C16.0288 6.11768 15.8877 6.58252 16.228 7.03906ZM7.63672 17.0166L8.88184 17.0166C9.16406 17.0166 9.40479 16.7759 9.40479 16.4937C9.40479 16.2114 9.16406 15.979 8.88184 15.979L7.64502 15.979C5.87695 15.979 4.62354 14.8335 4.62354 13.0322L4.62354 12.8745L5.64453 12.8745C6.23389 12.8745 6.375 12.4097 6.04297 11.9448L4.50732 9.85303C4.25 9.49609 3.95947 9.50439 3.70215 9.85303L2.1665 11.9448C1.81787 12.4097 1.95898 12.8745 2.56494 12.8745L3.66064 12.8745L3.66064 13.0405C3.66064 15.4312 5.2627 17.0166 7.63672 17.0166Z" fill="black" fill-opacity="0.85"/>
 </g>
</svg>
