<?xml version="1.0" encoding="UTF-8"?>
<!--Generator: Apple Native CoreSVG 326-->
<!DOCTYPE svg
PUBLIC "-//W3C//DTD SVG 1.1//EN"
       "http://www.w3.org/Graphics/SVG/1.1/DTD/svg11.dtd">
<svg version="1.1" xmlns="http://www.w3.org/2000/svg" xmlns:xlink="http://www.w3.org/1999/xlink" viewBox="0 0 17.938 17.4067">
 <g>
  <rect height="17.4067" opacity="0" width="17.938" x="0" y="0"/>
  <path d="M13.5386 2.58984L13.5386 3.85986L12.2021 3.85986L12.2021 2.66455C12.2021 1.80127 11.7373 1.35303 10.9155 1.35303L2.62305 1.35303C1.79297 1.35303 1.33643 1.80127 1.33643 2.66455L1.33643 10.9155C1.33643 11.7788 1.79297 12.2271 2.62305 12.2271L4.02588 12.2271L4.02588 13.5635L2.60645 13.5635C0.863281 13.5635 0 12.7002 0 10.9902L0 2.58984C0 0.879883 0.863281 0.0166016 2.60645 0.0166016L10.9404 0.0166016C12.667 0.0166016 13.5386 0.879883 13.5386 2.58984Z" fill="black" fill-opacity="0.85"/>
  <path d="M6.63232 17.4067L14.9663 17.4067C16.6929 17.4067 17.5645 16.5435 17.5645 14.8335L17.5645 6.43311C17.5645 4.72314 16.6929 3.85986 14.9663 3.85986L6.63232 3.85986C4.88916 3.85986 4.02588 4.71484 4.02588 6.43311L4.02588 14.8335C4.02588 16.5435 4.88916 17.4067 6.63232 17.4067ZM6.64893 16.0703C5.82715 16.0703 5.3623 15.6221 5.3623 14.7588L5.3623 6.50781C5.3623 5.64453 5.82715 5.19629 6.64893 5.19629L14.9414 5.19629C15.7632 5.19629 16.228 5.64453 16.228 6.50781L16.228 14.7588C16.228 15.6221 15.7632 16.0703 14.9414 16.0703Z" fill="black" fill-opacity="0.85"/>
 </g>
</svg>
