<svg width="420" height="418" viewBox="0 0 420 418" fill="none" xmlns="http://www.w3.org/2000/svg">
<mask id="mask0_104_85" style="mask-type:luminance" maskUnits="userSpaceOnUse" x="0" y="137" width="95" height="95">
<path d="M95 137H0V232H95V137Z" fill="white"/>
</mask>
<g mask="url(#mask0_104_85)">
<path d="M94.7105 184.355C94.7105 217.047 80.0471 231.711 47.3552 231.711C14.6633 231.711 0 217.047 0 184.355C0 151.663 14.6633 137 47.3552 137C80.0471 137 94.7105 151.663 94.7105 184.355Z" fill="black"/>
<path fill-rule="evenodd" clip-rule="evenodd" d="M38.4599 157.08H51.6339V178.79H43.4658V164.069H36.1487L38.4599 157.08ZM47.3554 211.63C55.6532 211.63 62.3798 204.904 62.3798 196.606C62.3798 188.308 55.6532 181.581 47.3554 181.581C39.0578 181.581 32.3312 188.308 32.3312 196.606C32.3312 204.904 39.0578 211.63 47.3554 211.63ZM47.3554 204.809C51.886 204.809 55.5589 201.136 55.5589 196.606C55.5589 192.075 51.886 188.402 47.3554 188.402C42.8247 188.402 39.152 192.075 39.152 196.606C39.152 201.136 42.8247 204.809 47.3554 204.809Z" fill="white"/>
<path d="M95 184.5C95 217.292 80.2921 232 47.5 232C14.7081 232 0 217.292 0 184.5C0 151.708 14.7081 137 47.5 137C80.2921 137 95 151.708 95 184.5Z" fill="#0F0F0F"/>
<path d="M95 184.5C95 217.292 80.2921 232 47.5 232C14.7081 232 0 217.292 0 184.5C0 151.708 14.7081 137 47.5 137C80.2921 137 95 151.708 95 184.5Z" fill="url(#paint0_radial_104_85)"/>
<path d="M95 184.5C95 217.292 80.2921 232 47.5 232C14.7081 232 0 217.292 0 184.5C0 151.708 14.7081 137 47.5 137C80.2921 137 95 151.708 95 184.5Z" fill="url(#paint1_radial_104_85)"/>
<path d="M95 184.5C95 217.292 80.2921 232 47.5 232C14.7081 232 0 217.292 0 184.5C0 151.708 14.7081 137 47.5 137C80.2921 137 95 151.708 95 184.5Z" fill="url(#paint2_linear_104_85)"/>
<g style="mix-blend-mode:screen">
<path d="M95 184.5C95 217.292 80.2921 232 47.5 232C14.7081 232 0 217.292 0 184.5C0 151.708 14.7081 137 47.5 137C80.2921 137 95 151.708 95 184.5Z" fill="black"/>
</g>
<g opacity="0.2">
<path d="M95 184.5C95 217.292 80.2921 232 47.5 232C14.7081 232 0 217.292 0 184.5C0 151.708 14.7081 137 47.5 137C80.2921 137 95 151.708 95 184.5Z" fill="#1B1B1B"/>
<path d="M95 184.5C95 217.292 80.2921 232 47.5 232C14.7081 232 0 217.292 0 184.5C0 151.708 14.7081 137 47.5 137C80.2921 137 95 151.708 95 184.5Z" fill="url(#paint3_radial_104_85)"/>
<path d="M95 184.5C95 217.292 80.2921 232 47.5 232C14.7081 232 0 217.292 0 184.5C0 151.708 14.7081 137 47.5 137C80.2921 137 95 151.708 95 184.5Z" fill="url(#paint4_radial_104_85)"/>
</g>
<mask id="mask1_104_85" style="mask-type:luminance" maskUnits="userSpaceOnUse" x="0" y="137" width="95" height="95">
<path d="M95 137H0V232H95V137Z" fill="white"/>
</mask>
<g mask="url(#mask1_104_85)">
<g filter="url(#filter0_dddi_104_85)">
<path d="M51.8324 157.225H38.6182L36.2999 164.235L36.8153 165.348H43.6394V179L44.0249 179.557H51.4541L51.8324 179V157.225Z" fill="url(#paint5_linear_104_85)"/>
<path d="M51.8324 157.225H38.6182L36.2999 164.235L36.8153 165.348H43.6394V179L44.0249 179.557H51.4541L51.8324 179V157.225Z" fill="url(#paint6_linear_104_85)" fill-opacity="0.6"/>
<path d="M51.8324 157.225H38.6182L36.2999 164.235L36.8153 165.348H43.6394V179L44.0249 179.557H51.4541L51.8324 179V157.225Z" fill="url(#paint7_linear_104_85)" fill-opacity="0.4"/>
</g>
<g filter="url(#filter1_dddi_104_85)">
<path fill-rule="evenodd" clip-rule="evenodd" d="M60.7556 195.572C60.7556 203.895 55.8639 210.642 47.5409 210.642C39.2179 210.642 34.3262 203.895 34.3262 195.572C34.3262 187.249 39.2179 184.213 47.5409 184.213C55.8639 184.213 60.7556 187.249 60.7556 195.572ZM55.7694 195.572C55.7694 200.117 52.0853 203.801 47.5409 203.801C42.9963 203.801 39.3123 200.117 39.3123 195.572C39.3123 191.028 42.9963 187.344 47.5409 187.344C52.0853 187.344 55.7694 191.028 55.7694 195.572Z" fill="url(#paint8_linear_104_85)"/>
<path fill-rule="evenodd" clip-rule="evenodd" d="M60.7556 195.572C60.7556 203.895 55.8639 210.642 47.5409 210.642C39.2179 210.642 34.3262 203.895 34.3262 195.572C34.3262 187.249 39.2179 184.213 47.5409 184.213C55.8639 184.213 60.7556 187.249 60.7556 195.572ZM55.7694 195.572C55.7694 200.117 52.0853 203.801 47.5409 203.801C42.9963 203.801 39.3123 200.117 39.3123 195.572C39.3123 191.028 42.9963 187.344 47.5409 187.344C52.0853 187.344 55.7694 191.028 55.7694 195.572Z" fill="url(#paint9_linear_104_85)"/>
<path fill-rule="evenodd" clip-rule="evenodd" d="M60.7556 195.572C60.7556 203.895 55.8639 210.642 47.5409 210.642C39.2179 210.642 34.3262 203.895 34.3262 195.572C34.3262 187.249 39.2179 184.213 47.5409 184.213C55.8639 184.213 60.7556 187.249 60.7556 195.572ZM55.7694 195.572C55.7694 200.117 52.0853 203.801 47.5409 203.801C42.9963 203.801 39.3123 200.117 39.3123 195.572C39.3123 191.028 42.9963 187.344 47.5409 187.344C52.0853 187.344 55.7694 191.028 55.7694 195.572Z" fill="url(#paint10_linear_104_85)"/>
</g>
<g filter="url(#filter2_d_104_85)">
<g filter="url(#filter3_f_104_85)">
<path fill-rule="evenodd" clip-rule="evenodd" d="M39.3604 158.338H52.5746V180.114L43.6035 179.676L44.3816 165.348H36.8134L36.2744 164.183L39.3604 158.338ZM48.2831 213.054C56.6061 213.054 63.3533 206.307 63.3533 197.984C63.3533 189.661 56.6061 182.914 48.2831 182.914C39.96 182.914 33.2129 189.661 33.2129 197.984C33.2129 206.307 39.96 213.054 48.2831 213.054ZM48.2831 206.213C52.8275 206.213 56.5116 202.529 56.5116 197.984C56.5116 193.44 52.8275 189.756 48.2831 189.756C43.7385 189.756 38.4082 193.222 38.4082 197.767C38.4082 202.311 43.7385 206.213 48.2831 206.213Z" fill="black"/>
</g>
<g filter="url(#filter4_i_104_85)">
<path fill-rule="evenodd" clip-rule="evenodd" d="M38.6182 157.225H51.8324V179H43.6394V164.235H36.2999L38.6182 157.225ZM47.5409 211.941C55.8639 211.941 62.6111 205.194 62.6111 196.871C62.6111 188.548 55.8639 181.801 47.5409 181.801C39.2179 181.801 32.4707 188.548 32.4707 196.871C32.4707 205.194 39.2179 211.941 47.5409 211.941ZM47.5409 205.099C52.0853 205.099 55.7694 201.415 55.7694 196.871C55.7694 192.326 52.0853 188.642 47.5409 188.642C42.9963 188.642 39.3123 192.326 39.3123 196.871C39.3123 201.415 42.9963 205.099 47.5409 205.099Z" fill="url(#paint11_linear_104_85)"/>
</g>
<mask id="mask2_104_85" style="mask-type:luminance" maskUnits="userSpaceOnUse" x="32" y="157" width="31" height="55">
<path fill-rule="evenodd" clip-rule="evenodd" d="M38.6182 157.225H51.8324V179H43.6394V164.235H36.2999L38.6182 157.225ZM47.5409 211.941C55.8639 211.941 62.6111 205.194 62.6111 196.871C62.6111 188.548 55.8639 181.801 47.5409 181.801C39.2179 181.801 32.4707 188.548 32.4707 196.871C32.4707 205.194 39.2179 211.941 47.5409 211.941ZM47.5409 205.099C52.0853 205.099 55.7694 201.415 55.7694 196.871C55.7694 192.326 52.0853 188.642 47.5409 188.642C42.9963 188.642 39.3123 192.326 39.3123 196.871C39.3123 201.415 42.9963 205.099 47.5409 205.099Z" fill="white"/>
</mask>
<g mask="url(#mask2_104_85)">
<path d="M51.8324 157.225H52.1107V156.946H51.8324V157.225ZM38.6182 157.225V156.946H38.417L38.3539 157.137L38.6182 157.225ZM51.8324 179V179.279H52.1107V179H51.8324ZM43.6394 179H43.361V179.279H43.6394V179ZM43.6394 164.235H43.9177V163.956H43.6394V164.235ZM36.2999 164.235L36.0356 164.147L35.9147 164.513H36.2999V164.235ZM51.8324 156.946H38.6182V157.503H51.8324V156.946ZM52.1107 179V157.225H51.5541V179H52.1107ZM43.6394 179.279H51.8324V178.722H43.6394V179.279ZM43.361 164.235V179H43.9177V164.235H43.361ZM36.2999 164.513H43.6394V163.956H36.2999V164.513ZM38.3539 157.137L36.0356 164.147L36.5641 164.322L38.8824 157.312L38.3539 157.137ZM62.3328 196.871C62.3328 205.04 55.7102 211.663 47.5409 211.663V212.219C56.0176 212.219 62.8894 205.348 62.8894 196.871H62.3328ZM47.5409 182.079C55.7102 182.079 62.3328 188.702 62.3328 196.871H62.8894C62.8894 188.394 56.0176 181.522 47.5409 181.522V182.079ZM32.749 196.871C32.749 188.702 39.3716 182.079 47.5409 182.079V181.522C39.0641 181.522 32.1924 188.394 32.1924 196.871H32.749ZM47.5409 211.663C39.3716 211.663 32.749 205.04 32.749 196.871H32.1924C32.1924 205.348 39.0641 212.219 47.5409 212.219V211.663ZM55.4911 196.871C55.4911 201.262 51.9316 204.821 47.5409 204.821V205.378C52.239 205.378 56.0477 201.569 56.0477 196.871H55.4911ZM47.5409 188.921C51.9316 188.921 55.4911 192.48 55.4911 196.871H56.0477C56.0477 192.173 52.239 188.364 47.5409 188.364V188.921ZM39.5907 196.871C39.5907 192.48 43.15 188.921 47.5409 188.921V188.364C42.8426 188.364 39.034 192.173 39.034 196.871H39.5907ZM47.5409 204.821C43.15 204.821 39.5907 201.262 39.5907 196.871H39.034C39.034 201.569 42.8426 205.378 47.5409 205.378V204.821Z" fill="url(#paint12_linear_104_85)"/>
</g>
</g>
</g>
</g>
<mask id="mask3_104_85" style="mask-type:luminance" maskUnits="userSpaceOnUse" x="0" y="137" width="95" height="95">
<path d="M95 137H0V232H95V137Z" fill="white"/>
</mask>
<g mask="url(#mask3_104_85)">
<path d="M94.7105 184.355C94.7105 217.047 80.0471 231.711 47.3552 231.711C14.6633 231.711 0 217.047 0 184.355C0 151.663 14.6633 137 47.3552 137C80.0471 137 94.7105 151.663 94.7105 184.355Z" fill="black"/>
<path fill-rule="evenodd" clip-rule="evenodd" d="M38.4599 157.08H51.6339V178.79H43.4658V164.069H36.1487L38.4599 157.08ZM47.3554 211.63C55.6532 211.63 62.3798 204.904 62.3798 196.606C62.3798 188.308 55.6532 181.582 47.3554 181.582C39.0578 181.582 32.3312 188.308 32.3312 196.606C32.3312 204.904 39.0578 211.63 47.3554 211.63ZM47.3554 204.809C51.886 204.809 55.5589 201.136 55.5589 196.606C55.5589 192.075 51.886 188.402 47.3554 188.402C42.8247 188.402 39.152 192.075 39.152 196.606C39.152 201.136 42.8247 204.809 47.3554 204.809Z" fill="white"/>
<path d="M95 184.5C95 217.292 80.2921 232 47.5 232C14.7081 232 0 217.292 0 184.5C0 151.708 14.7081 137 47.5 137C80.2921 137 95 151.708 95 184.5Z" fill="#0F0F0F"/>
<path d="M95 184.5C95 217.292 80.2921 232 47.5 232C14.7081 232 0 217.292 0 184.5C0 151.708 14.7081 137 47.5 137C80.2921 137 95 151.708 95 184.5Z" fill="url(#paint13_radial_104_85)"/>
<path d="M95 184.5C95 217.292 80.2921 232 47.5 232C14.7081 232 0 217.292 0 184.5C0 151.708 14.7081 137 47.5 137C80.2921 137 95 151.708 95 184.5Z" fill="url(#paint14_radial_104_85)"/>
<path d="M95 184.5C95 217.292 80.2921 232 47.5 232C14.7081 232 0 217.292 0 184.5C0 151.708 14.7081 137 47.5 137C80.2921 137 95 151.708 95 184.5Z" fill="url(#paint15_linear_104_85)"/>
<path d="M95 184.5C95 217.292 80.2921 232 47.5 232C14.7081 232 0 217.292 0 184.5C0 151.708 14.7081 137 47.5 137C80.2921 137 95 151.708 95 184.5Z" fill="black"/>
<path d="M95 184.5C95 217.292 80.2921 232 47.5 232C14.7081 232 0 217.292 0 184.5C0 151.708 14.7081 137 47.5 137C80.2921 137 95 151.708 95 184.5Z" fill="#1B1B1B"/>
<path d="M95 184.5C95 217.292 80.2921 232 47.5 232C14.7081 232 0 217.292 0 184.5C0 151.708 14.7081 137 47.5 137C80.2921 137 95 151.708 95 184.5Z" fill="url(#paint16_radial_104_85)"/>
<path d="M95 184.5C95 217.292 80.2921 232 47.5 232C14.7081 232 0 217.292 0 184.5C0 151.708 14.7081 137 47.5 137C80.2921 137 95 151.708 95 184.5Z" fill="url(#paint17_radial_104_85)"/>
<path d="M74.2188 137H20.7812C9.30408 137 0 146.304 0 157.781V211.219C0 222.696 9.30408 232 20.7812 232H74.2188C85.6959 232 95 222.696 95 211.219V157.781C95 146.304 85.6959 137 74.2188 137Z" fill="url(#paint18_linear_104_85)"/>
<g filter="url(#filter5_dddi_104_85)">
<path d="M51.8324 157.225H38.6182L36.2999 164.235L36.8153 165.348H43.6394V179L44.0249 179.557H51.4541L51.8324 179V157.225Z" fill="url(#paint19_linear_104_85)"/>
<path d="M51.8324 157.225H38.6182L36.2999 164.235L36.8153 165.348H43.6394V179L44.0249 179.557H51.4541L51.8324 179V157.225Z" fill="url(#paint20_linear_104_85)" fill-opacity="0.6"/>
<path d="M51.8324 157.225H38.6182L36.2999 164.235L36.8153 165.348H43.6394V179L44.0249 179.557H51.4541L51.8324 179V157.225Z" fill="url(#paint21_linear_104_85)" fill-opacity="0.4"/>
</g>
<g filter="url(#filter6_dddi_104_85)">
<path fill-rule="evenodd" clip-rule="evenodd" d="M60.7556 195.572C60.7556 203.895 55.8639 210.642 47.5409 210.642C39.2179 210.642 34.3262 203.895 34.3262 195.572C34.3262 187.249 39.2179 184.213 47.5409 184.213C55.8639 184.213 60.7556 187.249 60.7556 195.572ZM55.7694 195.572C55.7694 200.117 52.0853 203.801 47.5409 203.801C42.9963 203.801 39.3123 200.117 39.3123 195.572C39.3123 191.028 42.9963 187.344 47.5409 187.344C52.0853 187.344 55.7694 191.028 55.7694 195.572Z" fill="url(#paint22_linear_104_85)"/>
<path fill-rule="evenodd" clip-rule="evenodd" d="M60.7556 195.572C60.7556 203.895 55.8639 210.642 47.5409 210.642C39.2179 210.642 34.3262 203.895 34.3262 195.572C34.3262 187.249 39.2179 184.213 47.5409 184.213C55.8639 184.213 60.7556 187.249 60.7556 195.572ZM55.7694 195.572C55.7694 200.117 52.0853 203.801 47.5409 203.801C42.9963 203.801 39.3123 200.117 39.3123 195.572C39.3123 191.028 42.9963 187.344 47.5409 187.344C52.0853 187.344 55.7694 191.028 55.7694 195.572Z" fill="url(#paint23_linear_104_85)"/>
<path fill-rule="evenodd" clip-rule="evenodd" d="M60.7556 195.572C60.7556 203.895 55.8639 210.642 47.5409 210.642C39.2179 210.642 34.3262 203.895 34.3262 195.572C34.3262 187.249 39.2179 184.213 47.5409 184.213C55.8639 184.213 60.7556 187.249 60.7556 195.572ZM55.7694 195.572C55.7694 200.117 52.0853 203.801 47.5409 203.801C42.9963 203.801 39.3123 200.117 39.3123 195.572C39.3123 191.028 42.9963 187.344 47.5409 187.344C52.0853 187.344 55.7694 191.028 55.7694 195.572Z" fill="url(#paint24_linear_104_85)"/>
</g>
<g filter="url(#filter7_d_104_85)">
<g filter="url(#filter8_f_104_85)">
<path fill-rule="evenodd" clip-rule="evenodd" d="M39.3604 158.338H52.5746V180.114L43.6035 179.676L44.3816 165.348H36.8134L36.2744 164.183L39.3604 158.338ZM48.2831 213.054C56.6061 213.054 63.3533 206.307 63.3533 197.984C63.3533 189.661 56.6061 182.914 48.2831 182.914C39.96 182.914 33.2129 189.661 33.2129 197.984C33.2129 206.307 39.96 213.054 48.2831 213.054ZM48.2831 206.213C52.8275 206.213 56.5116 202.529 56.5116 197.984C56.5116 193.44 52.8275 189.756 48.2831 189.756C43.7385 189.756 38.4082 193.222 38.4082 197.767C38.4082 202.311 43.7385 206.213 48.2831 206.213Z" fill="black"/>
</g>
<g filter="url(#filter9_i_104_85)">
<path fill-rule="evenodd" clip-rule="evenodd" d="M38.6182 157.225H51.8324V179H43.6394V164.235H36.2999L38.6182 157.225ZM47.5409 211.941C55.8639 211.941 62.6111 205.194 62.6111 196.871C62.6111 188.548 55.8639 181.801 47.5409 181.801C39.2179 181.801 32.4707 188.548 32.4707 196.871C32.4707 205.194 39.2179 211.941 47.5409 211.941ZM47.5409 205.099C52.0853 205.099 55.7694 201.415 55.7694 196.871C55.7694 192.326 52.0853 188.642 47.5409 188.642C42.9963 188.642 39.3123 192.326 39.3123 196.871C39.3123 201.415 42.9963 205.099 47.5409 205.099Z" fill="url(#paint25_linear_104_85)"/>
</g>
<mask id="mask4_104_85" style="mask-type:luminance" maskUnits="userSpaceOnUse" x="32" y="157" width="31" height="55">
<path fill-rule="evenodd" clip-rule="evenodd" d="M38.6182 157.225H51.8324V179H43.6394V164.235H36.2999L38.6182 157.225ZM47.5409 211.941C55.8639 211.941 62.6111 205.194 62.6111 196.871C62.6111 188.548 55.8639 181.801 47.5409 181.801C39.2179 181.801 32.4707 188.548 32.4707 196.871C32.4707 205.194 39.2179 211.941 47.5409 211.941ZM47.5409 205.099C52.0853 205.099 55.7694 201.415 55.7694 196.871C55.7694 192.326 52.0853 188.642 47.5409 188.642C42.9963 188.642 39.3123 192.326 39.3123 196.871C39.3123 201.415 42.9963 205.099 47.5409 205.099Z" fill="white"/>
</mask>
<g mask="url(#mask4_104_85)">
<path d="M51.8324 157.225H52.1107V156.946H51.8324V157.225ZM38.6182 157.225V156.946H38.417L38.3539 157.137L38.6182 157.225ZM51.8324 179V179.279H52.1107V179H51.8324ZM43.6394 179H43.361V179.279H43.6394V179ZM43.6394 164.235H43.9177V163.956H43.6394V164.235ZM36.2999 164.235L36.0356 164.147L35.9147 164.513H36.2999V164.235ZM51.8324 156.946H38.6182V157.503H51.8324V156.946ZM52.1107 179V157.225H51.5541V179H52.1107ZM43.6394 179.279H51.8324V178.722H43.6394V179.279ZM43.361 164.235V179H43.9177V164.235H43.361ZM36.2999 164.513H43.6394V163.956H36.2999V164.513ZM38.3539 157.137L36.0356 164.147L36.5641 164.322L38.8824 157.312L38.3539 157.137ZM62.3328 196.871C62.3328 205.04 55.7102 211.663 47.5409 211.663V212.219C56.0176 212.219 62.8894 205.348 62.8894 196.871H62.3328ZM47.5409 182.079C55.7102 182.079 62.3328 188.702 62.3328 196.871H62.8894C62.8894 188.394 56.0176 181.522 47.5409 181.522V182.079ZM32.749 196.871C32.749 188.702 39.3716 182.079 47.5409 182.079V181.522C39.0641 181.522 32.1924 188.394 32.1924 196.871H32.749ZM47.5409 211.663C39.3716 211.663 32.749 205.04 32.749 196.871H32.1924C32.1924 205.348 39.0641 212.219 47.5409 212.219V211.663ZM55.4911 196.871C55.4911 201.262 51.9316 204.821 47.5409 204.821V205.378C52.239 205.378 56.0477 201.569 56.0477 196.871H55.4911ZM47.5409 188.921C51.9316 188.921 55.4911 192.48 55.4911 196.871H56.0477C56.0477 192.173 52.239 188.364 47.5409 188.364V188.921ZM39.5907 196.871C39.5907 192.48 43.15 188.921 47.5409 188.921V188.364C42.8426 188.364 39.034 192.173 39.034 196.871H39.5907ZM47.5409 204.821C43.15 204.821 39.5907 201.262 39.5907 196.871H39.034C39.034 201.569 42.8426 205.378 47.5409 205.378V204.821Z" fill="url(#paint26_linear_104_85)"/>
</g>
</g>
</g>
<g clip-path="url(#clip0_104_85)" filter="url(#filter10_f_104_85)">
<rect x="120" y="135" width="78" height="78" rx="14.625" fill="#0052FF"/>
<path fill-rule="evenodd" clip-rule="evenodd" d="M131.578 174C131.578 189.145 143.855 201.422 159 201.422C174.145 201.422 186.422 189.145 186.422 174C186.422 158.855 174.145 146.578 159 146.578C143.855 146.578 131.578 158.855 131.578 174ZM151.992 165.164C150.983 165.164 150.164 165.983 150.164 166.992V181.008C150.164 182.017 150.983 182.836 151.992 182.836H166.008C167.017 182.836 167.836 182.017 167.836 181.008V166.992C167.836 165.983 167.017 165.164 166.008 165.164H151.992Z" fill="white"/>
</g>
<g clip-path="url(#clip1_104_85)" filter="url(#filter11_f_104_85)">
<rect x="214.125" y="192.125" width="63.75" height="63.75" rx="11.875" fill="white" stroke="#DCDCDC" stroke-width="0.25"/>
<path d="M246.019 205.438C252.476 210.831 259.881 210.498 261.997 210.498C261.534 241.169 258.008 235.087 246.019 243.688C234.029 235.087 230.525 241.169 230.062 210.498C232.156 210.498 239.561 210.831 246.019 205.438Z" stroke="#3375BB" stroke-width="3.5" stroke-miterlimit="10" stroke-linecap="round" stroke-linejoin="round"/>
</g>
<path d="M87 211.187C87 269.737 134.638 317.373 193.187 317.373C216.34 317.373 237.498 309.922 254.93 297.413L320.399 363.015C323.459 366.075 327.45 367.539 331.708 367.539C340.757 367.539 347.011 360.753 347.011 351.837C347.011 347.579 345.414 343.721 342.62 340.927L277.551 275.458C291.257 257.627 299.373 235.405 299.373 211.187C299.373 152.638 251.737 105 193.187 105C134.638 105 87 152.638 87 211.187ZM109.754 211.187C109.754 165.146 147.146 127.754 193.187 127.754C239.228 127.754 276.619 165.146 276.619 211.187C276.619 257.228 239.228 294.619 193.187 294.619C147.146 294.619 109.754 257.228 109.754 211.187Z" fill="#D8D8D8"/>
<path d="M298 211.389C298 232.556 315.222 249.778 336.389 249.778C344.76 249.778 352.408 247.084 358.711 242.562L382.379 266.278C383.485 267.385 384.928 267.914 386.468 267.914C389.739 267.914 392 265.461 392 262.237C392 260.698 391.423 259.303 390.413 258.293L366.888 234.624C371.844 228.178 374.778 220.144 374.778 211.389C374.778 190.222 357.556 173 336.389 173C315.222 173 298 190.222 298 211.389ZM306.226 211.389C306.226 194.744 319.744 181.226 336.389 181.226C353.034 181.226 366.552 194.744 366.552 211.389C366.552 228.034 353.034 241.552 336.389 241.552C319.744 241.552 306.226 228.034 306.226 211.389Z" fill="black" fill-opacity="0.03"/>
<path d="M380 208.336C380 217.343 387.329 224.671 396.336 224.671C399.898 224.671 403.153 223.525 405.834 221.601L415.906 231.693C416.377 232.164 416.991 232.389 417.646 232.389C419.038 232.389 420 231.345 420 229.973C420 229.318 419.754 228.725 419.325 228.295L409.314 218.223C411.423 215.48 412.671 212.061 412.671 208.336C412.671 199.329 405.343 192 396.336 192C387.329 192 380 199.329 380 208.336ZM383.501 208.336C383.501 201.253 389.253 195.501 396.336 195.501C403.419 195.501 409.171 201.253 409.171 208.336C409.171 215.419 403.419 221.171 396.336 221.171C389.253 221.171 383.501 215.419 383.501 208.336Z" fill="black" fill-opacity="0.02"/>
<g clip-path="url(#clip2_104_85)">
<path d="M361.604 40.2728H293V108.877H361.604V40.2728Z" fill="#8697FF"/>
<path d="M346.786 77.0462C348.327 73.591 340.706 63.9377 333.426 59.9159C328.837 56.8002 324.055 57.2283 323.087 58.5963C320.962 61.5984 330.125 64.1424 336.253 67.1109C334.935 67.685 333.694 68.7152 332.964 70.0326C330.679 67.53 325.665 65.375 319.781 67.1109C315.816 68.2808 312.521 71.0386 311.248 75.2041C310.938 75.0661 310.595 74.9895 310.235 74.9895C308.857 74.9895 307.739 76.1107 307.739 77.4938C307.739 78.8768 308.857 79.9981 310.235 79.9981C310.49 79.9981 311.289 79.826 311.289 79.826L324.055 79.9189C318.95 88.0455 314.915 89.2335 314.915 90.6413C314.915 92.0492 318.776 91.6677 320.225 91.1428C327.164 88.6306 334.617 80.8011 335.896 78.5472C341.267 79.2196 345.78 79.2992 346.786 77.0462Z" fill="url(#paint27_linear_104_85)"/>
<path fill-rule="evenodd" clip-rule="evenodd" d="M336.252 67.1114C336.252 67.1115 336.253 67.1117 336.253 67.1118C336.537 66.9995 336.491 66.5786 336.413 66.2481C336.234 65.4882 333.141 62.4237 330.236 61.0511C326.279 59.1807 323.364 59.277 322.933 60.1389C323.74 61.7969 327.477 63.3535 331.381 64.9793C333.046 65.6729 334.742 66.379 336.253 67.111C336.253 67.1111 336.252 67.1113 336.252 67.1114Z" fill="url(#paint28_linear_104_85)"/>
<path fill-rule="evenodd" clip-rule="evenodd" d="M331.23 83.7977C330.429 83.4907 329.525 83.209 328.497 82.9537C329.593 80.9859 329.823 78.0727 328.788 76.2309C327.335 73.646 325.512 72.2702 321.274 72.2702C318.944 72.2702 312.669 73.058 312.557 78.3138C312.546 78.8653 312.557 79.3707 312.597 79.8355L324.055 79.9189C322.511 82.3778 321.064 84.2015 319.797 85.5882C321.318 85.9792 322.573 86.3075 323.725 86.6088C324.818 86.8949 325.819 87.1566 326.866 87.4247C328.446 86.2698 329.932 85.0103 331.23 83.7977Z" fill="url(#paint29_linear_104_85)"/>
<path d="M311.095 79.2955C311.563 83.2882 313.824 84.853 318.445 85.3161C323.067 85.779 325.717 85.4684 329.247 85.7905C332.194 86.0597 334.826 87.5667 335.802 87.0459C336.681 86.5772 336.189 84.8838 335.013 83.7974C333.489 82.3892 331.38 81.4101 327.669 81.0625C328.408 79.0305 328.201 76.1814 327.052 74.6314C325.391 72.3901 322.326 71.3769 318.445 71.8196C314.392 72.2821 310.507 74.2847 311.095 79.2955Z" fill="url(#paint30_linear_104_85)"/>
</g>
<g clip-path="url(#clip3_104_85)">
<rect x="23" y="297" width="109" height="109" fill="white"/>
<path d="M108.17 319.992L81.5875 339.735L86.5032 328.087L108.17 319.992Z" fill="#E2761B" stroke="#E2761B" stroke-width="0.851562" stroke-linecap="round" stroke-linejoin="round"/>
<path d="M46.8037 319.992L73.1721 339.922L68.4968 328.087L46.8037 319.992Z" fill="#E4761B" stroke="#E4761B" stroke-width="0.851562" stroke-linecap="round" stroke-linejoin="round"/>
<path d="M98.6054 365.756L91.5258 376.603L106.674 380.77L111.028 365.997L98.6054 365.756Z" fill="#E4761B" stroke="#E4761B" stroke-width="0.851562" stroke-linecap="round" stroke-linejoin="round"/>
<path d="M43.9985 365.997L48.3264 380.77L63.4742 376.603L56.3946 365.756L43.9985 365.997Z" fill="#E4761B" stroke="#E4761B" stroke-width="0.851562" stroke-linecap="round" stroke-linejoin="round"/>
<path d="M62.6194 347.429L58.3983 353.814L73.4392 354.482L72.9049 338.319L62.6194 347.429Z" fill="#E4761B" stroke="#E4761B" stroke-width="0.851562" stroke-linecap="round" stroke-linejoin="round"/>
<path d="M92.3539 347.429L81.9348 338.132L81.5875 354.482L96.6017 353.814L92.3539 347.429Z" fill="#E4761B" stroke="#E4761B" stroke-width="0.851562" stroke-linecap="round" stroke-linejoin="round"/>
<path d="M63.4743 376.603L72.5042 372.195L64.7032 366.103L63.4743 376.603Z" fill="#E4761B" stroke="#E4761B" stroke-width="0.851562" stroke-linecap="round" stroke-linejoin="round"/>
<path d="M82.4691 372.195L91.5258 376.603L90.2701 366.103L82.4691 372.195Z" fill="#E4761B" stroke="#E4761B" stroke-width="0.851562" stroke-linecap="round" stroke-linejoin="round"/>
<path d="M91.5258 376.603L82.4692 372.195L83.1905 378.099L83.1104 380.583L91.5258 376.603Z" fill="#D7C1B3" stroke="#D7C1B3" stroke-width="0.851562" stroke-linecap="round" stroke-linejoin="round"/>
<path d="M63.4742 376.603L71.8897 380.583L71.8363 378.099L72.5041 372.195L63.4742 376.603Z" fill="#D7C1B3" stroke="#D7C1B3" stroke-width="0.851562" stroke-linecap="round" stroke-linejoin="round"/>
<path d="M72.0233 362.203L64.4895 359.986L69.8059 357.554L72.0233 362.203Z" fill="#233447" stroke="#233447" stroke-width="0.851562" stroke-linecap="round" stroke-linejoin="round"/>
<path d="M82.95 362.203L85.1674 357.554L90.5105 359.986L82.95 362.203Z" fill="#233447" stroke="#233447" stroke-width="0.851562" stroke-linecap="round" stroke-linejoin="round"/>
<path d="M63.4743 376.603L64.7566 365.756L56.3946 365.997L63.4743 376.603Z" fill="#CD6116" stroke="#CD6116" stroke-width="0.851562" stroke-linecap="round" stroke-linejoin="round"/>
<path d="M90.2434 365.756L91.5258 376.603L98.6054 365.997L90.2434 365.756Z" fill="#CD6116" stroke="#CD6116" stroke-width="0.851562" stroke-linecap="round" stroke-linejoin="round"/>
<path d="M96.6017 353.814L81.5875 354.482L82.9767 362.203L85.1941 357.554L90.5373 359.986L96.6017 353.814Z" fill="#CD6116" stroke="#CD6116" stroke-width="0.851562" stroke-linecap="round" stroke-linejoin="round"/>
<path d="M64.4895 359.986L69.8327 357.554L72.0233 362.203L73.4393 354.482L58.3983 353.814L64.4895 359.986Z" fill="#CD6116" stroke="#CD6116" stroke-width="0.851562" stroke-linecap="round" stroke-linejoin="round"/>
<path d="M58.3983 353.814L64.7032 366.103L64.4895 359.986L58.3983 353.814Z" fill="#E4751F" stroke="#E4751F" stroke-width="0.851562" stroke-linecap="round" stroke-linejoin="round"/>
<path d="M90.5372 359.986L90.2701 366.103L96.6017 353.814L90.5372 359.986Z" fill="#E4751F" stroke="#E4751F" stroke-width="0.851562" stroke-linecap="round" stroke-linejoin="round"/>
<path d="M73.4392 354.482L72.0233 362.203L73.7865 371.313L74.1873 359.318L73.4392 354.482Z" fill="#E4751F" stroke="#E4751F" stroke-width="0.851562" stroke-linecap="round" stroke-linejoin="round"/>
<path d="M81.5874 354.482L80.8661 359.291L81.1867 371.313L82.9767 362.203L81.5874 354.482Z" fill="#E4751F" stroke="#E4751F" stroke-width="0.851562" stroke-linecap="round" stroke-linejoin="round"/>
<path d="M82.9767 362.203L81.1868 371.313L82.4691 372.195L90.2701 366.103L90.5373 359.986L82.9767 362.203Z" fill="#F6851B" stroke="#F6851B" stroke-width="0.851562" stroke-linecap="round" stroke-linejoin="round"/>
<path d="M64.4895 359.986L64.7032 366.103L72.5042 372.195L73.7865 371.313L72.0233 362.203L64.4895 359.986Z" fill="#F6851B" stroke="#F6851B" stroke-width="0.851562" stroke-linecap="round" stroke-linejoin="round"/>
<path d="M83.1103 380.583L83.1904 378.099L82.5225 377.511H72.4507L71.8363 378.099L71.8897 380.583L63.4742 376.603L66.413 379.007L72.3706 383.148H82.6027L88.587 379.007L91.5257 376.603L83.1103 380.583Z" fill="#C0AD9E" stroke="#C0AD9E" stroke-width="0.851562" stroke-linecap="round" stroke-linejoin="round"/>
<path d="M82.4691 372.195L81.1867 371.313H73.7865L72.5041 372.195L71.8362 378.099L72.4507 377.511H82.5225L83.1904 378.099L82.4691 372.195Z" fill="#161616" stroke="#161616" stroke-width="0.851562" stroke-linecap="round" stroke-linejoin="round"/>
<path d="M109.292 341.017L111.563 330.117L108.17 319.992L82.4691 339.067L92.3539 347.429L106.326 351.517L109.425 347.91L108.089 346.948L110.227 344.998L108.57 343.716L110.708 342.086L109.292 341.017Z" fill="#763D16" stroke="#763D16" stroke-width="0.851562" stroke-linecap="round" stroke-linejoin="round"/>
<path d="M43.4375 330.117L45.7083 341.017L44.2657 342.086L46.4029 343.716L44.7733 344.998L46.9105 346.948L45.5748 347.91L48.6471 351.517L62.6194 347.429L72.5042 339.067L46.8037 319.992L43.4375 330.117Z" fill="#763D16" stroke="#763D16" stroke-width="0.851562" stroke-linecap="round" stroke-linejoin="round"/>
<path d="M106.326 351.517L92.3539 347.429L96.6017 353.814L90.2701 366.103L98.6054 365.997H111.028L106.326 351.517Z" fill="#F6851B" stroke="#F6851B" stroke-width="0.851562" stroke-linecap="round" stroke-linejoin="round"/>
<path d="M62.6193 347.429L48.647 351.517L43.9985 365.997H56.3945L64.7031 366.103L58.3982 353.814L62.6193 347.429Z" fill="#F6851B" stroke="#F6851B" stroke-width="0.851562" stroke-linecap="round" stroke-linejoin="round"/>
<path d="M81.5875 354.482L82.4691 339.067L86.5299 328.087H68.4968L72.5041 339.067L73.4392 354.482L73.7598 359.344L73.7865 371.313H81.1867L81.2402 359.344L81.5875 354.482Z" fill="#F6851B" stroke="#F6851B" stroke-width="0.851562" stroke-linecap="round" stroke-linejoin="round"/>
</g>
<g filter="url(#filter12_f_104_85)">
<g clip-path="url(#clip4_104_85)">
<rect x="189" y="350" width="57" height="57" fill="url(#paint31_linear_104_85)"/>
<path d="M198.5 368.05H201.35C216.041 368.05 227.95 379.959 227.95 394.65V397.5H233.65C235.224 397.5 236.5 396.224 236.5 394.65C236.5 375.237 220.763 359.5 201.35 359.5C199.776 359.5 198.5 360.776 198.5 362.35V368.05Z" fill="url(#paint32_radial_104_85)"/>
<path d="M228.9 394.65H236.5C236.5 396.224 235.224 397.5 233.65 397.5H228.9V394.65Z" fill="url(#paint33_linear_104_85)"/>
<path d="M201.35 359.5L201.35 367.1H198.5L198.5 362.35C198.5 360.776 199.776 359.5 201.35 359.5Z" fill="url(#paint34_linear_104_85)"/>
<path d="M198.5 367.1H201.35C216.565 367.1 228.9 379.435 228.9 394.65V397.5H220.35V394.65C220.35 384.157 211.843 375.65 201.35 375.65H198.5V367.1Z" fill="url(#paint35_radial_104_85)"/>
<path d="M221.3 394.65H228.9V397.5H221.3V394.65Z" fill="url(#paint36_linear_104_85)"/>
<path d="M198.5 374.7L198.5 367.1L201.35 367.1L201.35 374.7H198.5Z" fill="url(#paint37_linear_104_85)"/>
<path d="M198.5 379.45C198.5 381.024 199.776 382.3 201.35 382.3C208.171 382.3 213.7 387.829 213.7 394.65C213.7 396.224 214.976 397.5 216.55 397.5H221.3V394.65C221.3 383.632 212.368 374.7 201.35 374.7H198.5V379.45Z" fill="url(#paint38_radial_104_85)"/>
<path d="M213.7 394.65H221.3V397.5H216.55C214.976 397.5 213.7 396.224 213.7 394.65Z" fill="url(#paint39_radial_104_85)"/>
<path d="M201.35 382.3C199.776 382.3 198.5 381.024 198.5 379.45L198.5 374.7L201.35 374.7L201.35 382.3Z" fill="url(#paint40_radial_104_85)"/>
</g>
</g>
<g filter="url(#filter13_f_104_85)">
<g clip-path="url(#clip5_104_85)">
<rect x="137" y="11" width="64" height="64" fill="url(#paint41_linear_104_85)"/>
<path d="M192.292 43.4571H186.571C186.571 31.8826 177.086 22.5 165.386 22.5C153.831 22.5 144.436 31.6528 144.206 43.0291C143.968 54.7885 155.12 65 167.009 65H168.505C178.986 65 193.034 56.8833 195.229 46.9937C195.635 45.1706 194.179 43.4571 192.292 43.4571ZM156.884 43.9727C156.884 45.5205 155.605 46.7864 154.04 46.7864C152.475 46.7864 151.196 45.5199 151.196 43.9727V39.4207C151.196 37.8729 152.475 36.607 154.04 36.607C155.605 36.607 156.884 37.8729 156.884 39.4207V43.9727ZM166.761 43.9727C166.761 45.5205 165.482 46.7864 163.917 46.7864C162.352 46.7864 161.073 45.5199 161.073 43.9727V39.4207C161.073 37.8729 162.353 36.607 163.917 36.607C165.482 36.607 166.761 37.8729 166.761 39.4207V43.9727Z" fill="url(#paint42_linear_104_85)"/>
</g>
</g>
<g filter="url(#filter14_f_104_85)">
<rect x="332" y="268" width="40.1544" height="40.225" rx="8.78377" fill="white"/>
<rect x="332.078" y="268.078" width="39.9975" height="40.0681" rx="8.70535" stroke="#DCDCDC" stroke-width="0.156853"/>
<path d="M354.502 279.503H349.652C349.486 279.503 349.356 279.642 349.356 279.808C349.254 284.51 346.876 288.971 342.775 292.127C342.646 292.229 342.618 292.414 342.711 292.553L345.552 296.598C345.645 296.737 345.839 296.765 345.969 296.663C348.532 294.701 350.596 292.331 352.077 289.712C353.558 292.34 355.622 294.701 358.186 296.663C358.315 296.765 358.51 296.737 358.602 296.598L361.444 292.553C361.536 292.414 361.509 292.229 361.379 292.127C357.279 288.971 354.9 284.51 354.798 279.808C354.798 279.633 354.669 279.503 354.502 279.503Z" fill="#FF875B"/>
</g>
<defs>
<filter id="filter0_dddi_104_85" x="24.1487" y="152.806" width="39.8349" height="48.844" filterUnits="userSpaceOnUse" color-interpolation-filters="sRGB">
<feFlood flood-opacity="0" result="BackgroundImageFix"/>
<feColorMatrix in="SourceAlpha" type="matrix" values="0 0 0 0 0 0 0 0 0 0 0 0 0 0 0 0 0 0 127 0" result="hardAlpha"/>
<feOffset dy="2.2093"/>
<feGaussianBlur stdDeviation="2.76163"/>
<feColorMatrix type="matrix" values="0 0 0 0 0 0 0 0 0 0 0 0 0 0 0 0 0 0 0.14 0"/>
<feBlend mode="normal" in2="BackgroundImageFix" result="effect1_dropShadow_104_85"/>
<feColorMatrix in="SourceAlpha" type="matrix" values="0 0 0 0 0 0 0 0 0 0 0 0 0 0 0 0 0 0 127 0" result="hardAlpha"/>
<feOffset dy="9.94182"/>
<feGaussianBlur stdDeviation="6.07558"/>
<feColorMatrix type="matrix" values="0 0 0 0 0 0 0 0 0 0 0 0 0 0 0 0 0 0 0.34 0"/>
<feBlend mode="normal" in2="effect1_dropShadow_104_85" result="effect2_dropShadow_104_85"/>
<feColorMatrix in="SourceAlpha" type="matrix" values="0 0 0 0 0 0 0 0 0 0 0 0 0 0 0 0 0 0 127 0" result="hardAlpha"/>
<feOffset dy="2.2093"/>
<feGaussianBlur stdDeviation="3.31396"/>
<feColorMatrix type="matrix" values="0 0 0 0 0 0 0 0 0 0 0 0 0 0 0 0 0 0 0.25 0"/>
<feBlend mode="normal" in2="effect2_dropShadow_104_85" result="effect3_dropShadow_104_85"/>
<feBlend mode="normal" in="SourceGraphic" in2="effect3_dropShadow_104_85" result="shape"/>
<feColorMatrix in="SourceAlpha" type="matrix" values="0 0 0 0 0 0 0 0 0 0 0 0 0 0 0 0 0 0 127 0" result="hardAlpha"/>
<feOffset dy="-1.10465"/>
<feGaussianBlur stdDeviation="2.2093"/>
<feComposite in2="hardAlpha" operator="arithmetic" k2="-1" k3="1"/>
<feColorMatrix type="matrix" values="0 0 0 0 1 0 0 0 0 1 0 0 0 0 1 0 0 0 0.55 0"/>
<feBlend mode="normal" in2="shape" result="effect4_innerShadow_104_85"/>
</filter>
<filter id="filter1_dddi_104_85" x="22.175" y="179.794" width="50.7318" height="52.9409" filterUnits="userSpaceOnUse" color-interpolation-filters="sRGB">
<feFlood flood-opacity="0" result="BackgroundImageFix"/>
<feColorMatrix in="SourceAlpha" type="matrix" values="0 0 0 0 0 0 0 0 0 0 0 0 0 0 0 0 0 0 127 0" result="hardAlpha"/>
<feOffset dy="2.2093"/>
<feGaussianBlur stdDeviation="2.76163"/>
<feColorMatrix type="matrix" values="0 0 0 0 0 0 0 0 0 0 0 0 0 0 0 0 0 0 0.14 0"/>
<feBlend mode="normal" in2="BackgroundImageFix" result="effect1_dropShadow_104_85"/>
<feColorMatrix in="SourceAlpha" type="matrix" values="0 0 0 0 0 0 0 0 0 0 0 0 0 0 0 0 0 0 127 0" result="hardAlpha"/>
<feOffset dy="9.94182"/>
<feGaussianBlur stdDeviation="6.07558"/>
<feColorMatrix type="matrix" values="0 0 0 0 0 0 0 0 0 0 0 0 0 0 0 0 0 0 0.34 0"/>
<feBlend mode="normal" in2="effect1_dropShadow_104_85" result="effect2_dropShadow_104_85"/>
<feColorMatrix in="SourceAlpha" type="matrix" values="0 0 0 0 0 0 0 0 0 0 0 0 0 0 0 0 0 0 127 0" result="hardAlpha"/>
<feOffset dy="2.2093"/>
<feGaussianBlur stdDeviation="3.31396"/>
<feColorMatrix type="matrix" values="0 0 0 0 0 0 0 0 0 0 0 0 0 0 0 0 0 0 0.25 0"/>
<feBlend mode="normal" in2="effect2_dropShadow_104_85" result="effect3_dropShadow_104_85"/>
<feBlend mode="normal" in="SourceGraphic" in2="effect3_dropShadow_104_85" result="shape"/>
<feColorMatrix in="SourceAlpha" type="matrix" values="0 0 0 0 0 0 0 0 0 0 0 0 0 0 0 0 0 0 127 0" result="hardAlpha"/>
<feOffset dy="-1.10465"/>
<feGaussianBlur stdDeviation="2.2093"/>
<feComposite in2="hardAlpha" operator="arithmetic" k2="-1" k3="1"/>
<feColorMatrix type="matrix" values="0 0 0 0 1 0 0 0 0 1 0 0 0 0 1 0 0 0 0.55 0"/>
<feBlend mode="normal" in2="shape" result="effect4_innerShadow_104_85"/>
</filter>
<filter id="filter2_d_104_85" x="19.9707" y="150.975" width="55.8826" height="80.8296" filterUnits="userSpaceOnUse" color-interpolation-filters="sRGB">
<feFlood flood-opacity="0" result="BackgroundImageFix"/>
<feColorMatrix in="SourceAlpha" type="matrix" values="0 0 0 0 0 0 0 0 0 0 0 0 0 0 0 0 0 0 127 0" result="hardAlpha"/>
<feOffset dy="6.25"/>
<feGaussianBlur stdDeviation="6.25"/>
<feComposite in2="hardAlpha" operator="out"/>
<feColorMatrix type="matrix" values="0 0 0 0 0 0 0 0 0 0 0 0 0 0 0 0 0 0 0.6 0"/>
<feBlend mode="normal" in2="BackgroundImageFix" result="effect1_dropShadow_104_85"/>
<feBlend mode="normal" in="SourceGraphic" in2="effect1_dropShadow_104_85" result="shape"/>
</filter>
<filter id="filter3_f_104_85" x="29.873" y="154.998" width="36.8201" height="61.396" filterUnits="userSpaceOnUse" color-interpolation-filters="sRGB">
<feFlood flood-opacity="0" result="BackgroundImageFix"/>
<feBlend mode="normal" in="SourceGraphic" in2="BackgroundImageFix" result="shape"/>
<feGaussianBlur stdDeviation="1.66992" result="effect1_foregroundBlur_104_85"/>
</filter>
<filter id="filter4_i_104_85" x="32.4707" y="157.225" width="30.5115" height="55.0874" filterUnits="userSpaceOnUse" color-interpolation-filters="sRGB">
<feFlood flood-opacity="0" result="BackgroundImageFix"/>
<feBlend mode="normal" in="SourceGraphic" in2="BackgroundImageFix" result="shape"/>
<feColorMatrix in="SourceAlpha" type="matrix" values="0 0 0 0 0 0 0 0 0 0 0 0 0 0 0 0 0 0 127 0" result="hardAlpha"/>
<feOffset dx="0.371094" dy="0.371094"/>
<feGaussianBlur stdDeviation="0.371094"/>
<feComposite in2="hardAlpha" operator="arithmetic" k2="-1" k3="1"/>
<feColorMatrix type="matrix" values="0 0 0 0 1 0 0 0 0 1 0 0 0 0 1 0 0 0 0.25 0"/>
<feBlend mode="normal" in2="shape" result="effect1_innerShadow_104_85"/>
</filter>
<filter id="filter5_dddi_104_85" x="24.1487" y="152.806" width="39.8349" height="48.844" filterUnits="userSpaceOnUse" color-interpolation-filters="sRGB">
<feFlood flood-opacity="0" result="BackgroundImageFix"/>
<feColorMatrix in="SourceAlpha" type="matrix" values="0 0 0 0 0 0 0 0 0 0 0 0 0 0 0 0 0 0 127 0" result="hardAlpha"/>
<feOffset dy="2.2093"/>
<feGaussianBlur stdDeviation="2.76163"/>
<feColorMatrix type="matrix" values="0 0 0 0 0 0 0 0 0 0 0 0 0 0 0 0 0 0 0.14 0"/>
<feBlend mode="normal" in2="BackgroundImageFix" result="effect1_dropShadow_104_85"/>
<feColorMatrix in="SourceAlpha" type="matrix" values="0 0 0 0 0 0 0 0 0 0 0 0 0 0 0 0 0 0 127 0" result="hardAlpha"/>
<feOffset dy="9.94182"/>
<feGaussianBlur stdDeviation="6.07558"/>
<feColorMatrix type="matrix" values="0 0 0 0 0 0 0 0 0 0 0 0 0 0 0 0 0 0 0.34 0"/>
<feBlend mode="normal" in2="effect1_dropShadow_104_85" result="effect2_dropShadow_104_85"/>
<feColorMatrix in="SourceAlpha" type="matrix" values="0 0 0 0 0 0 0 0 0 0 0 0 0 0 0 0 0 0 127 0" result="hardAlpha"/>
<feOffset dy="2.2093"/>
<feGaussianBlur stdDeviation="3.31396"/>
<feColorMatrix type="matrix" values="0 0 0 0 0 0 0 0 0 0 0 0 0 0 0 0 0 0 0.25 0"/>
<feBlend mode="normal" in2="effect2_dropShadow_104_85" result="effect3_dropShadow_104_85"/>
<feBlend mode="normal" in="SourceGraphic" in2="effect3_dropShadow_104_85" result="shape"/>
<feColorMatrix in="SourceAlpha" type="matrix" values="0 0 0 0 0 0 0 0 0 0 0 0 0 0 0 0 0 0 127 0" result="hardAlpha"/>
<feOffset dy="-1.10465"/>
<feGaussianBlur stdDeviation="2.2093"/>
<feComposite in2="hardAlpha" operator="arithmetic" k2="-1" k3="1"/>
<feColorMatrix type="matrix" values="0 0 0 0 1 0 0 0 0 1 0 0 0 0 1 0 0 0 0.55 0"/>
<feBlend mode="normal" in2="shape" result="effect4_innerShadow_104_85"/>
</filter>
<filter id="filter6_dddi_104_85" x="22.175" y="179.794" width="50.7318" height="52.9409" filterUnits="userSpaceOnUse" color-interpolation-filters="sRGB">
<feFlood flood-opacity="0" result="BackgroundImageFix"/>
<feColorMatrix in="SourceAlpha" type="matrix" values="0 0 0 0 0 0 0 0 0 0 0 0 0 0 0 0 0 0 127 0" result="hardAlpha"/>
<feOffset dy="2.2093"/>
<feGaussianBlur stdDeviation="2.76163"/>
<feColorMatrix type="matrix" values="0 0 0 0 0 0 0 0 0 0 0 0 0 0 0 0 0 0 0.14 0"/>
<feBlend mode="normal" in2="BackgroundImageFix" result="effect1_dropShadow_104_85"/>
<feColorMatrix in="SourceAlpha" type="matrix" values="0 0 0 0 0 0 0 0 0 0 0 0 0 0 0 0 0 0 127 0" result="hardAlpha"/>
<feOffset dy="9.94182"/>
<feGaussianBlur stdDeviation="6.07558"/>
<feColorMatrix type="matrix" values="0 0 0 0 0 0 0 0 0 0 0 0 0 0 0 0 0 0 0.34 0"/>
<feBlend mode="normal" in2="effect1_dropShadow_104_85" result="effect2_dropShadow_104_85"/>
<feColorMatrix in="SourceAlpha" type="matrix" values="0 0 0 0 0 0 0 0 0 0 0 0 0 0 0 0 0 0 127 0" result="hardAlpha"/>
<feOffset dy="2.2093"/>
<feGaussianBlur stdDeviation="3.31396"/>
<feColorMatrix type="matrix" values="0 0 0 0 0 0 0 0 0 0 0 0 0 0 0 0 0 0 0.25 0"/>
<feBlend mode="normal" in2="effect2_dropShadow_104_85" result="effect3_dropShadow_104_85"/>
<feBlend mode="normal" in="SourceGraphic" in2="effect3_dropShadow_104_85" result="shape"/>
<feColorMatrix in="SourceAlpha" type="matrix" values="0 0 0 0 0 0 0 0 0 0 0 0 0 0 0 0 0 0 127 0" result="hardAlpha"/>
<feOffset dy="-1.10465"/>
<feGaussianBlur stdDeviation="2.2093"/>
<feComposite in2="hardAlpha" operator="arithmetic" k2="-1" k3="1"/>
<feColorMatrix type="matrix" values="0 0 0 0 1 0 0 0 0 1 0 0 0 0 1 0 0 0 0.55 0"/>
<feBlend mode="normal" in2="shape" result="effect4_innerShadow_104_85"/>
</filter>
<filter id="filter7_d_104_85" x="19.9707" y="150.975" width="55.8826" height="80.8296" filterUnits="userSpaceOnUse" color-interpolation-filters="sRGB">
<feFlood flood-opacity="0" result="BackgroundImageFix"/>
<feColorMatrix in="SourceAlpha" type="matrix" values="0 0 0 0 0 0 0 0 0 0 0 0 0 0 0 0 0 0 127 0" result="hardAlpha"/>
<feOffset dy="6.25"/>
<feGaussianBlur stdDeviation="6.25"/>
<feComposite in2="hardAlpha" operator="out"/>
<feColorMatrix type="matrix" values="0 0 0 0 0 0 0 0 0 0 0 0 0 0 0 0 0 0 0.6 0"/>
<feBlend mode="normal" in2="BackgroundImageFix" result="effect1_dropShadow_104_85"/>
<feBlend mode="normal" in="SourceGraphic" in2="effect1_dropShadow_104_85" result="shape"/>
</filter>
<filter id="filter8_f_104_85" x="29.873" y="154.998" width="36.8201" height="61.396" filterUnits="userSpaceOnUse" color-interpolation-filters="sRGB">
<feFlood flood-opacity="0" result="BackgroundImageFix"/>
<feBlend mode="normal" in="SourceGraphic" in2="BackgroundImageFix" result="shape"/>
<feGaussianBlur stdDeviation="1.66992" result="effect1_foregroundBlur_104_85"/>
</filter>
<filter id="filter9_i_104_85" x="32.4707" y="157.225" width="30.5115" height="55.0874" filterUnits="userSpaceOnUse" color-interpolation-filters="sRGB">
<feFlood flood-opacity="0" result="BackgroundImageFix"/>
<feBlend mode="normal" in="SourceGraphic" in2="BackgroundImageFix" result="shape"/>
<feColorMatrix in="SourceAlpha" type="matrix" values="0 0 0 0 0 0 0 0 0 0 0 0 0 0 0 0 0 0 127 0" result="hardAlpha"/>
<feOffset dx="0.371094" dy="0.371094"/>
<feGaussianBlur stdDeviation="0.371094"/>
<feComposite in2="hardAlpha" operator="arithmetic" k2="-1" k3="1"/>
<feColorMatrix type="matrix" values="0 0 0 0 1 0 0 0 0 1 0 0 0 0 1 0 0 0 0.25 0"/>
<feBlend mode="normal" in2="shape" result="effect1_innerShadow_104_85"/>
</filter>
<filter id="filter10_f_104_85" x="118" y="133" width="82" height="82" filterUnits="userSpaceOnUse" color-interpolation-filters="sRGB">
<feFlood flood-opacity="0" result="BackgroundImageFix"/>
<feBlend mode="normal" in="SourceGraphic" in2="BackgroundImageFix" result="shape"/>
<feGaussianBlur stdDeviation="1" result="effect1_foregroundBlur_104_85"/>
</filter>
<filter id="filter11_f_104_85" x="204" y="182" width="84" height="84" filterUnits="userSpaceOnUse" color-interpolation-filters="sRGB">
<feFlood flood-opacity="0" result="BackgroundImageFix"/>
<feBlend mode="normal" in="SourceGraphic" in2="BackgroundImageFix" result="shape"/>
<feGaussianBlur stdDeviation="5" result="effect1_foregroundBlur_104_85"/>
</filter>
<filter id="filter12_f_104_85" x="178.9" y="339.9" width="77.2" height="77.2" filterUnits="userSpaceOnUse" color-interpolation-filters="sRGB">
<feFlood flood-opacity="0" result="BackgroundImageFix"/>
<feBlend mode="normal" in="SourceGraphic" in2="BackgroundImageFix" result="shape"/>
<feGaussianBlur stdDeviation="5.05" result="effect1_foregroundBlur_104_85"/>
</filter>
<filter id="filter13_f_104_85" x="126.9" y="0.9" width="84.2" height="84.2" filterUnits="userSpaceOnUse" color-interpolation-filters="sRGB">
<feFlood flood-opacity="0" result="BackgroundImageFix"/>
<feBlend mode="normal" in="SourceGraphic" in2="BackgroundImageFix" result="shape"/>
<feGaussianBlur stdDeviation="5.05" result="effect1_foregroundBlur_104_85"/>
</filter>
<filter id="filter14_f_104_85" x="328" y="264" width="48.1544" height="48.225" filterUnits="userSpaceOnUse" color-interpolation-filters="sRGB">
<feFlood flood-opacity="0" result="BackgroundImageFix"/>
<feBlend mode="normal" in="SourceGraphic" in2="BackgroundImageFix" result="shape"/>
<feGaussianBlur stdDeviation="2" result="effect1_foregroundBlur_104_85"/>
</filter>
<radialGradient id="paint0_radial_104_85" cx="0" cy="0" r="1" gradientUnits="userSpaceOnUse" gradientTransform="translate(47.5 196.58) rotate(90) scale(38.7873 50.4373)">
<stop stop-opacity="0.35"/>
<stop offset="1" stop-opacity="0"/>
</radialGradient>
<radialGradient id="paint1_radial_104_85" cx="0" cy="0" r="1" gradientUnits="userSpaceOnUse" gradientTransform="translate(47.5 137) rotate(90) scale(95)">
<stop stop-color="white" stop-opacity="0.05"/>
<stop offset="1" stop-color="white" stop-opacity="0"/>
</radialGradient>
<linearGradient id="paint2_linear_104_85" x1="-1.11419" y1="137" x2="18.7873" y2="219.015" gradientUnits="userSpaceOnUse">
<stop stop-color="white" stop-opacity="0.26"/>
<stop offset="0.471233" stop-color="white" stop-opacity="0.0781197"/>
<stop offset="1" stop-color="white" stop-opacity="0"/>
</linearGradient>
<radialGradient id="paint3_radial_104_85" cx="0" cy="0" r="1" gradientUnits="userSpaceOnUse" gradientTransform="translate(47.5 196.58) rotate(90) scale(38.7873 50.4373)">
<stop stop-opacity="0.35"/>
<stop offset="1" stop-opacity="0"/>
</radialGradient>
<radialGradient id="paint4_radial_104_85" cx="0" cy="0" r="1" gradientUnits="userSpaceOnUse" gradientTransform="translate(47.5 137) rotate(90) scale(95)">
<stop stop-color="white" stop-opacity="0.05"/>
<stop offset="1" stop-color="white" stop-opacity="0"/>
</radialGradient>
<linearGradient id="paint5_linear_104_85" x1="44.2468" y1="161.926" x2="43.7689" y2="179.549" gradientUnits="userSpaceOnUse">
<stop stop-color="#F2F6F7"/>
<stop offset="0.473473" stop-color="#DADADA"/>
<stop offset="1" stop-color="#BCBCBC"/>
</linearGradient>
<linearGradient id="paint6_linear_104_85" x1="44.045" y1="163.662" x2="43.6863" y2="179.548" gradientUnits="userSpaceOnUse">
<stop stop-opacity="0"/>
<stop offset="1"/>
</linearGradient>
<linearGradient id="paint7_linear_104_85" x1="44.2468" y1="171.623" x2="43.7698" y2="179.539" gradientUnits="userSpaceOnUse">
<stop offset="0.329728" stop-opacity="0"/>
<stop offset="1"/>
</linearGradient>
<linearGradient id="paint8_linear_104_85" x1="47.8482" y1="189.777" x2="47.4547" y2="210.64" gradientUnits="userSpaceOnUse">
<stop stop-color="#F2F6F7"/>
<stop offset="0.473473" stop-color="#DADADA"/>
<stop offset="1" stop-color="#BCBCBC"/>
</linearGradient>
<linearGradient id="paint9_linear_104_85" x1="47.505" y1="191.831" x2="47.2097" y2="210.637" gradientUnits="userSpaceOnUse">
<stop stop-opacity="0"/>
<stop offset="1"/>
</linearGradient>
<linearGradient id="paint10_linear_104_85" x1="47.5" y1="203.704" x2="47.4719" y2="206.765" gradientUnits="userSpaceOnUse">
<stop offset="0.329728" stop-opacity="0"/>
<stop offset="1"/>
</linearGradient>
<linearGradient id="paint11_linear_104_85" x1="36.9238" y1="155.184" x2="60.4909" y2="212.795" gradientUnits="userSpaceOnUse">
<stop stop-color="white"/>
<stop offset="1" stop-color="#565656"/>
</linearGradient>
<linearGradient id="paint12_linear_104_85" x1="40.1428" y1="152.897" x2="79.0756" y2="191.261" gradientUnits="userSpaceOnUse">
<stop stop-color="white"/>
<stop offset="1" stop-color="white" stop-opacity="0.06"/>
</linearGradient>
<radialGradient id="paint13_radial_104_85" cx="0" cy="0" r="1" gradientUnits="userSpaceOnUse" gradientTransform="translate(47.5 196.58) rotate(90) scale(38.7873 50.4373)">
<stop stop-opacity="0.35"/>
<stop offset="1" stop-opacity="0"/>
</radialGradient>
<radialGradient id="paint14_radial_104_85" cx="0" cy="0" r="1" gradientUnits="userSpaceOnUse" gradientTransform="translate(47.5 137) rotate(90) scale(95)">
<stop stop-color="white" stop-opacity="0.05"/>
<stop offset="1" stop-color="white" stop-opacity="0"/>
</radialGradient>
<linearGradient id="paint15_linear_104_85" x1="-1.11419" y1="137" x2="18.7873" y2="219.015" gradientUnits="userSpaceOnUse">
<stop stop-color="white" stop-opacity="0.26"/>
<stop offset="0.471233" stop-color="white" stop-opacity="0.0781197"/>
<stop offset="1" stop-color="white" stop-opacity="0"/>
</linearGradient>
<radialGradient id="paint16_radial_104_85" cx="0" cy="0" r="1" gradientUnits="userSpaceOnUse" gradientTransform="translate(47.5 196.58) rotate(90) scale(38.7873 50.4373)">
<stop stop-opacity="0.35"/>
<stop offset="1" stop-opacity="0"/>
</radialGradient>
<radialGradient id="paint17_radial_104_85" cx="0" cy="0" r="1" gradientUnits="userSpaceOnUse" gradientTransform="translate(47.5 137) rotate(90) scale(95)">
<stop stop-color="white" stop-opacity="0.05"/>
<stop offset="1" stop-color="white" stop-opacity="0"/>
</radialGradient>
<linearGradient id="paint18_linear_104_85" x1="38.2227" y1="132.918" x2="50.4687" y2="232" gradientUnits="userSpaceOnUse">
<stop stop-color="#404040"/>
<stop offset="0.663106" stop-color="#1C1C1C"/>
<stop offset="0.992654" stop-color="#111111"/>
</linearGradient>
<linearGradient id="paint19_linear_104_85" x1="44.2468" y1="161.926" x2="43.7689" y2="179.549" gradientUnits="userSpaceOnUse">
<stop stop-color="#F2F6F7"/>
<stop offset="0.473473" stop-color="#DADADA"/>
<stop offset="1" stop-color="#BCBCBC"/>
</linearGradient>
<linearGradient id="paint20_linear_104_85" x1="44.045" y1="163.662" x2="43.6863" y2="179.548" gradientUnits="userSpaceOnUse">
<stop stop-opacity="0"/>
<stop offset="1"/>
</linearGradient>
<linearGradient id="paint21_linear_104_85" x1="44.2468" y1="171.623" x2="43.7698" y2="179.539" gradientUnits="userSpaceOnUse">
<stop offset="0.329728" stop-opacity="0"/>
<stop offset="1"/>
</linearGradient>
<linearGradient id="paint22_linear_104_85" x1="47.8482" y1="189.777" x2="47.4547" y2="210.64" gradientUnits="userSpaceOnUse">
<stop stop-color="#F2F6F7"/>
<stop offset="0.473473" stop-color="#DADADA"/>
<stop offset="1" stop-color="#BCBCBC"/>
</linearGradient>
<linearGradient id="paint23_linear_104_85" x1="47.505" y1="191.831" x2="47.2097" y2="210.637" gradientUnits="userSpaceOnUse">
<stop stop-opacity="0"/>
<stop offset="1"/>
</linearGradient>
<linearGradient id="paint24_linear_104_85" x1="47.5" y1="203.704" x2="47.4719" y2="206.765" gradientUnits="userSpaceOnUse">
<stop offset="0.329728" stop-opacity="0"/>
<stop offset="1"/>
</linearGradient>
<linearGradient id="paint25_linear_104_85" x1="36.9238" y1="155.184" x2="60.4909" y2="212.795" gradientUnits="userSpaceOnUse">
<stop stop-color="white"/>
<stop offset="1" stop-color="#565656"/>
</linearGradient>
<linearGradient id="paint26_linear_104_85" x1="40.1428" y1="152.897" x2="79.0756" y2="191.261" gradientUnits="userSpaceOnUse">
<stop stop-color="white"/>
<stop offset="1" stop-color="white" stop-opacity="0.06"/>
</linearGradient>
<linearGradient id="paint27_linear_104_85" x1="319.32" y1="73.9864" x2="346.467" y2="81.659" gradientUnits="userSpaceOnUse">
<stop stop-color="white"/>
<stop offset="1" stop-color="white"/>
</linearGradient>
<linearGradient id="paint28_linear_104_85" x1="341.884" y1="73.4689" x2="322.24" y2="53.8426" gradientUnits="userSpaceOnUse">
<stop stop-color="#8697FF"/>
<stop offset="1" stop-color="#8697FF" stop-opacity="0"/>
</linearGradient>
<linearGradient id="paint29_linear_104_85" x1="331.774" y1="84.4836" x2="312.936" y2="73.6891" gradientUnits="userSpaceOnUse">
<stop stop-color="#8697FF"/>
<stop offset="1" stop-color="#8697FF" stop-opacity="0"/>
</linearGradient>
<linearGradient id="paint30_linear_104_85" x1="320.939" y1="73.7833" x2="333.705" y2="89.9483" gradientUnits="userSpaceOnUse">
<stop stop-color="white"/>
<stop offset="0.983895" stop-color="#D1D8FF"/>
</linearGradient>
<linearGradient id="paint31_linear_104_85" x1="217.5" y1="350" x2="217.5" y2="407" gradientUnits="userSpaceOnUse">
<stop stop-color="#174299"/>
<stop offset="1" stop-color="#001E59"/>
</linearGradient>
<radialGradient id="paint32_radial_104_85" cx="0" cy="0" r="1" gradientUnits="userSpaceOnUse" gradientTransform="translate(201.35 394.65) rotate(-90) scale(35.15)">
<stop offset="0.770277" stop-color="#FF4000"/>
<stop offset="1" stop-color="#8754C9"/>
</radialGradient>
<linearGradient id="paint33_linear_104_85" x1="228.425" y1="396.075" x2="236.5" y2="396.075" gradientUnits="userSpaceOnUse">
<stop stop-color="#FF4000"/>
<stop offset="1" stop-color="#8754C9"/>
</linearGradient>
<linearGradient id="paint34_linear_104_85" x1="199.925" y1="359.5" x2="199.925" y2="367.575" gradientUnits="userSpaceOnUse">
<stop stop-color="#8754C9"/>
<stop offset="1" stop-color="#FF4000"/>
</linearGradient>
<radialGradient id="paint35_radial_104_85" cx="0" cy="0" r="1" gradientUnits="userSpaceOnUse" gradientTransform="translate(201.35 394.65) rotate(-90) scale(27.55)">
<stop offset="0.723929" stop-color="#FFF700"/>
<stop offset="1" stop-color="#FF9901"/>
</radialGradient>
<linearGradient id="paint36_linear_104_85" x1="221.3" y1="396.075" x2="228.9" y2="396.075" gradientUnits="userSpaceOnUse">
<stop stop-color="#FFF700"/>
<stop offset="1" stop-color="#FF9901"/>
</linearGradient>
<linearGradient id="paint37_linear_104_85" x1="199.925" y1="374.7" x2="199.925" y2="367.1" gradientUnits="userSpaceOnUse">
<stop stop-color="#FFF700"/>
<stop offset="1" stop-color="#FF9901"/>
</linearGradient>
<radialGradient id="paint38_radial_104_85" cx="0" cy="0" r="1" gradientUnits="userSpaceOnUse" gradientTransform="translate(201.35 394.65) rotate(-90) scale(19.95)">
<stop offset="0.59513" stop-color="#00AAFF"/>
<stop offset="1" stop-color="#01DA40"/>
</radialGradient>
<radialGradient id="paint39_radial_104_85" cx="0" cy="0" r="1" gradientUnits="userSpaceOnUse" gradientTransform="translate(213.225 396.075) scale(8.075 21.5333)">
<stop stop-color="#00AAFF"/>
<stop offset="1" stop-color="#01DA40"/>
</radialGradient>
<radialGradient id="paint40_radial_104_85" cx="0" cy="0" r="1" gradientUnits="userSpaceOnUse" gradientTransform="translate(199.925 382.775) rotate(-90) scale(8.075 153.126)">
<stop stop-color="#00AAFF"/>
<stop offset="1" stop-color="#01DA40"/>
</radialGradient>
<linearGradient id="paint41_linear_104_85" x1="169" y1="11" x2="169" y2="75" gradientUnits="userSpaceOnUse">
<stop stop-color="#534BB1"/>
<stop offset="1" stop-color="#551BF9"/>
</linearGradient>
<linearGradient id="paint42_linear_104_85" x1="169.75" y1="22.5" x2="169.75" y2="65" gradientUnits="userSpaceOnUse">
<stop stop-color="white"/>
<stop offset="1" stop-color="white" stop-opacity="0.82"/>
</linearGradient>
<clipPath id="clip0_104_85">
<rect width="78" height="78" fill="white" transform="translate(120 135)"/>
</clipPath>
<clipPath id="clip1_104_85">
<rect width="64" height="64" fill="white" transform="translate(214 192)"/>
</clipPath>
<clipPath id="clip2_104_85">
<rect x="293" y="40.2728" width="68.6038" height="68.6038" rx="12.8632" fill="white"/>
</clipPath>
<clipPath id="clip3_104_85">
<rect x="23" y="297" width="109" height="109" rx="20.4375" fill="white"/>
</clipPath>
<clipPath id="clip4_104_85">
<rect x="189" y="350" width="57" height="57" rx="12.4688" fill="white"/>
</clipPath>
<clipPath id="clip5_104_85">
<rect x="137" y="11" width="64" height="64" rx="12" fill="white"/>
</clipPath>
</defs>
</svg>
