<svg width="128" height="128" viewBox="0 0 128 128" fill="none" xmlns="http://www.w3.org/2000/svg">
<rect width="127.775" height="128" rx="28" fill="#3396FF"/>
<path d="M37.5855 47.3318C52.1241 33.0973 75.6956 33.0973 90.2344 47.3318L91.984 49.0449C92.7109 49.7567 92.7109 50.9106 91.984 51.6224L85.9986 57.4827C85.635 57.8386 85.0458 57.8386 84.6822 57.4827L82.2745 55.1253C72.1319 45.1948 55.6878 45.1948 45.5453 55.1253L42.9666 57.6498C42.6033 58.0057 42.014 58.0057 41.6505 57.6498L35.6651 51.7895C34.9379 51.0777 34.9379 49.9239 35.6651 49.2121L37.5855 47.3318ZM102.613 59.4516L107.94 64.6672C108.667 65.379 108.667 66.5329 107.94 67.2447L83.9198 90.7631C83.1929 91.4747 82.0142 91.4747 81.2873 90.7631L64.2391 74.0714C64.0573 73.8934 63.7627 73.8934 63.5809 74.0714L46.5331 90.7631C45.8062 91.4747 44.6275 91.4747 43.9006 90.7631L19.8796 67.2444C19.1527 66.5326 19.1527 65.3788 19.8796 64.667L25.2068 59.4512C25.9337 58.7396 27.1123 58.7396 27.8392 59.4512L44.8878 76.143C45.0693 76.3211 45.3639 76.3211 45.5457 76.143L62.5933 59.4512C63.3202 58.7396 64.4989 58.7396 65.2258 59.4512L82.2742 76.143C82.456 76.3211 82.7506 76.3211 82.9324 76.143L99.9804 59.4516C100.708 58.7398 101.886 58.7398 102.613 59.4516Z" fill="white"/>
</svg>
